<?xml version="1.0" encoding="utf-8"?>
<svg version="1.1" id="Layer_1" xmlns="http://www.w3.org/2000/svg" xmlns:xlink="http://www.w3.org/1999/xlink" x="0px" y="0px" viewBox="0 0 730.9 900" style="enable-background:new 0 0 730.9 900;" xml:space="preserve">

	<path class="st0" d="M261.9,15c32.8-9.7,67.6-15,103.5-15S436.1,5.2,469,15c84.1,22.7,126.8,67.6,140.3,78.7
	c74.6,67.1,121.6,164.3,121.6,272.4c0,112.8-51.9,218.8-139.8,288c12.4,3.3,21.7,14.6,21.7,28.1v12.9c0,15.6-12.4,28.4-27.8,29.1
	l104.5,104.7h10.8c16,0,29.1,13.1,29.1,29.1v12.9c0,16.1-13,29.1-29.1,29.1H30.6c-16,0-29.1-13.1-29.1-29.1V858
	c0-16.1,13-29.1,29.1-29.1H42l104.5-104.7c-15.7-0.4-28.4-13.3-28.4-29.1v-12.9c0-13.5,9.3-24.9,21.8-28.2
	C51.9,584.9,0,478.9,0,366.1C0,258,47,160.8,121.6,93.7C121.6,93.7,179.2,39,261.9,15z M63.3,857c-3.3,0-6-2.7-6-6
	c0-2.8,2-5.2,4.6-5.9H30.6c0,0-0.1,0-0.1,0c2.6,0.6,4.6,3,4.6,5.9c0,3.3-2.7,6-6,6c-3.3,0-6-2.7-6-6c0-1.9,0.9-3.6,2.3-4.7
	c-4.5,2-7.7,6.6-7.7,11.8v12.9c0,4.7,2.5,8.7,6.2,11c1.1-1.7,2.9-2.8,5.1-2.8c2.9,0,5.3,2,5.9,4.7h22.4c0.6-2.7,3-4.7,5.9-4.7
	c2.9,0,5.3,2,5.9,4.7h22.5c0.6-2.7,3-4.7,5.9-4.7c2.9,0,5.3,2,5.9,4.7h22.4c0.6-2.7,3-4.7,5.9-4.7c2.9,0,5.3,2,5.9,4.7h22.5
	c0.6-2.7,3-4.7,5.9-4.7c2.9,0,5.3,2,5.9,4.7h22.4c0.6-2.7,3-4.7,5.9-4.7s5.3,2,5.9,4.7h22.4c0.6-2.7,3-4.7,5.9-4.7
	c2.9,0,5.3,2,5.9,4.7h22.4c0.6-2.7,3-4.7,5.9-4.7c2.9,0,5.3,2,5.9,4.7h22.5c0.6-2.7,3-4.7,5.9-4.7s5.3,2,5.9,4.7h22.4
	c0.6-2.7,3-4.7,5.9-4.7c2.9,0,5.3,2,5.9,4.7H365c0.6-2.7,3-4.7,5.9-4.7c2.9,0,5.3,2,5.9,4.7h22.4c0.6-2.7,3-4.7,5.9-4.7
	c2.9,0,5.3,2,5.9,4.7h22.3c0.6-2.7,3-4.7,5.9-4.7c2.9,0,5.3,2,5.9,4.7h22.5c0.6-2.7,3-4.7,5.9-4.7c2.9,0,5.3,2,5.9,4.7h22.4
	c0.6-2.7,3-4.7,5.9-4.7s5.3,2,5.9,4.7h22.4c0.6-2.7,3-4.7,5.9-4.7c2.9,0,5.3,2,5.9,4.7h22.5c0.6-2.7,3-4.7,5.9-4.7
	c2.9,0,5.3,2,5.9,4.7h22.4c0.6-2.7,3-4.7,5.9-4.7c2.9,0,5.3,2,5.9,4.7h22.5c0.6-2.7,3-4.7,5.9-4.7c2.9,0,5.3,2,5.9,4.7h22.4
	c0.6-2.7,3-4.7,5.9-4.7c2.9,0,5.3,2,5.9,4.7h15.8c7.1,0,12.9-5.8,12.9-13V858c0-0.4-0.1-0.7-0.1-1.1c-0.1,0-0.2,0-0.3,0
	c-3.3,0-6-2.7-6-6c0-1.2,0.4-2.4,1-3.4c-2.1-1.5-4.7-2.5-7.6-2.5h-20.2c2.6,0.6,4.6,3,4.6,5.9c0,3.3-2.7,6-6,6c-3.3,0-6-2.7-6-6
	c0-2.8,2-5.2,4.6-5.9h-31.4c2.6,0.6,4.6,3,4.6,5.9c0,3.3-2.7,6-6,6c-3.3,0-6-2.7-6-6c0-2.8,2-5.2,4.6-5.9h-31.4
	c2.6,0.6,4.6,3,4.6,5.9c0,3.3-2.7,6-6,6s-6-2.7-6-6c0-2.8,2-5.2,4.6-5.9h-31.4c2.6,0.6,4.6,3,4.6,5.9c0,3.3-2.7,6-6,6
	c-3.3,0-6-2.7-6-6c0-2.8,2-5.2,4.6-5.9h-31.3c2.6,0.6,4.6,3,4.6,5.9c0,3.3-2.7,6-6,6c-3.3,0-6-2.7-6-6c0-2.8,2-5.2,4.6-5.9h-31.4
	c2.6,0.6,4.6,3,4.6,5.9c0,3.3-2.7,6-6,6c-3.3,0-6-2.7-6-6c0-2.8,2-5.2,4.6-5.9h-31.4c2.6,0.6,4.6,3,4.6,5.9c0,3.3-2.7,6-6,6
	c-3.3,0-6-2.7-6-6c0-2.8,2-5.2,4.6-5.9h-31.4c2.6,0.6,4.6,3,4.6,5.9c0,3.3-2.7,6-6,6c-3.3,0-6-2.7-6-6c0-2.8,2-5.2,4.6-5.9h-31.4
	c2.6,0.6,4.6,3,4.6,5.9c0,3.3-2.7,6-6,6c-3.3,0-6-2.7-6-6c0-2.8,2-5.2,4.6-5.9h-31.4c2.6,0.6,4.6,3,4.6,5.9c0,3.3-2.7,6-6,6
	c-3.3,0-6-2.7-6-6c0-2.8,2-5.2,4.6-5.9h-31.4c2.6,0.6,4.6,3,4.6,5.9c0,3.3-2.7,6-6,6s-6-2.7-6-6c0-2.8,2-5.2,4.6-5.9h-31.4
	c2.6,0.6,4.6,3,4.6,5.9c0,3.3-2.7,6-6,6s-6-2.7-6-6c0-2.8,2-5.2,4.6-5.9h-31.4c2.6,0.6,4.6,3,4.6,5.9c0,3.3-2.7,6-6,6
	c-3.3,0-6-2.7-6-6c0-2.8,2-5.2,4.6-5.9h-31.3c2.6,0.6,4.6,3,4.6,5.9c0,3.3-2.7,6-6,6s-6-2.7-6-6c0-2.8,2-5.2,4.6-5.9h-31.4
	c2.6,0.6,4.6,3,4.6,5.9c0,3.3-2.7,6-6,6c-3.3,0-6-2.7-6-6c0-2.8,2-5.2,4.6-5.9h-31.4c2.6,0.6,4.6,3,4.6,5.9c0,3.3-2.7,6-6,6
	c-3.3,0-6-2.7-6-6c0-2.8,2-5.2,4.6-5.9H133c2.6,0.6,4.6,3,4.6,5.9c0,3.3-2.7,6-6,6c-3.3,0-6-2.7-6-6c0-2.8,2-5.2,4.6-5.9H98.8
	c2.6,0.6,4.6,3,4.6,5.9c0,3.3-2.7,6-6,6c-3.3,0-6-2.7-6-6c0-2.8,2-5.2,4.6-5.9H64.7c2.6,0.6,4.6,3,4.6,5.9
	C69.3,854.2,66.6,857,63.3,857z M64.8,828.9h602L562.2,724.2h-393L64.8,828.9z M136,675.8c0.9,1.1,1.4,2.4,1.4,3.9
	c0,2.3-1.3,4.3-3.2,5.3v10.1c0,7.2,5.8,13,13,13h16.9c0.5-0.1,1-0.2,1.6-0.2c0.5,0,1.1,0.1,1.6,0.2h31.1c0.5-0.1,1-0.2,1.6-0.2
	c0.5,0,1.1,0.1,1.6,0.2h31.1c0.5-0.1,1-0.2,1.6-0.2c0.5,0,1.1,0.1,1.6,0.2h31.1c0.5-0.1,1-0.2,1.6-0.2c0,0,0,0,0,0c0,0,0,0,0,0
	c0.5,0,1.1,0.1,1.6,0.2H301c0.5-0.1,1-0.2,1.6-0.2c0.5,0,1.1,0.1,1.6,0.2h31.1c0.5-0.1,1-0.2,1.6-0.2c0.5,0,1.1,0.1,1.6,0.2h31.1
	c0.5-0.1,1-0.2,1.6-0.2c0,0,0,0,0,0c0,0,0,0,0,0c0.5,0,1.1,0.1,1.6,0.2h31.1c0.5-0.1,1-0.2,1.6-0.2s1.1,0.1,1.6,0.2h31
	c0.5-0.1,1-0.2,1.6-0.2c0.5,0,1.1,0.1,1.6,0.2h31.1c0.5-0.1,1-0.2,1.6-0.2c0,0,0,0,0,0c0,0,0,0,0,0c0.5,0,1.1,0.1,1.6,0.2h31.1
	c0.5-0.1,1-0.2,1.6-0.2c0.5,0,1.1,0.1,1.6,0.2h31.1c0.5-0.1,1-0.2,1.6-0.2c0.5,0,1.1,0.1,1.6,0.2h30.9c0.5-0.1,1-0.2,1.6-0.2
	c0.5,0,1.1,0.1,1.6,0.2h6.2c4.3,0,8.1-2.1,10.4-5.4c-0.3,0.1-0.7,0.1-1.1,0.1c-3.3,0-6-2.7-6-6c0-3.3,2.7-6,6-6
	c1.3,0,2.6,0.5,3.6,1.2v-9.7c0-7.2-5.8-13-12.9-13H147.2C142.4,669.3,138.3,671.9,136,675.8z M246.3,20 M365.4,16.1
	c-192.6,0-349.3,157-349.3,350c0,114.4,55.8,221.5,149.4,287h399.8c93.6-65.6,149.4-172.6,149.4-287
	C714.8,173.1,558.1,16.1,365.4,16.1z M154.6,696.8c0,3.3-2.7,6-6,6c-3.3,0-6-2.7-6-6c0-3.3,2.7-6,6-6
	C151.9,690.7,154.6,693.4,154.6,696.8z M165.6,673.6c3.3,0,6,2.7,6,6c0,3.3-2.7,6-6,6c-3.3,0-6-2.7-6-6
	C159.6,676.3,162.3,673.6,165.6,673.6z M182.7,690.7c3.3,0,6,2.7,6,6c0,3.3-2.7,6-6,6c-3.3,0-6-2.7-6-6
	C176.6,693.4,179.3,690.7,182.7,690.7z M199.7,673.6c3.3,0,6,2.7,6,6c0,3.3-2.7,6-6,6c-3.3,0-6-2.7-6-6
	C193.7,676.3,196.4,673.6,199.7,673.6z M214.4,690.7c5.8,0,8.5,2.7,8.5,6c0,3.3-2.7,6-8.5,6c-0.9,0-3.6-2.7-3.6-6
	C210.8,693.4,213.5,690.7,214.4,690.7z M233.9,673.6c3.3,0,6,2.7,6,6c0,3.3-2.7,6-6,6c-3.3,0-6-2.7-6-6
	C227.9,676.3,230.6,673.6,233.9,673.6z M251,690.7C251,690.7,251,690.7,251,690.7C251.1,690.7,251.1,690.7,251,690.7
	c3.4,0,6.1,2.7,6.1,6c0,3.3-2.7,6-6,6c0,0,0,0,0,0c0,0,0,0,0,0c-3.3,0-6-2.7-6-6C245,693.4,247.7,690.7,251,690.7z M268.1,673.6
	C268.1,673.6,268.1,673.6,268.1,673.6C268.1,673.6,268.2,673.6,268.1,673.6c3.4,0,6.1,2.7,6.1,6c0,3.3-2.7,6-6,6c0,0,0,0,0,0
	c0,0,0,0,0,0c-3.3,0-6-2.7-6-6C262.1,676.3,264.8,673.6,268.1,673.6z M285.3,690.7c3.3,0,6,2.7,6,6c0,3.3-2.7,6-6,6
	c-3.3,0-6-2.7-6-6C279.2,693.4,281.9,690.7,285.3,690.7z M302.4,673.6c3.3,0,6,2.7,6,6c0,3.3-2.7,6-6,6c-3.3,0-6-2.7-6-6
	C296.3,676.3,299,673.6,302.4,673.6z M319.5,690.7c3.3,0,6,2.7,6,6c0,3.3-2.7,6-6,6c-3.3,0-6-2.7-6-6
	C313.5,693.4,316.2,690.7,319.5,690.7z M336.6,673.6c3.3,0,6,2.7,6,6c0,3.3-2.7,6-6,6s-6-2.7-6-6
	C330.5,676.3,333.2,673.6,336.6,673.6z M353.7,690.7c3.3,0,6,2.7,6,6c0,3.3-2.7,6-6,6c-3.3,0-6-2.7-6-6
	C347.6,693.4,350.3,690.7,353.7,690.7z M370.8,673.6c3.3,0,6,2.7,6,6c0,3.3-2.7,6-6,6s-6-2.7-6-6
	C364.7,676.3,367.4,673.6,370.8,673.6z M387.9,690.7C387.9,690.7,387.9,690.7,387.9,690.7C387.9,690.7,387.9,690.7,387.9,690.7
	c3.4,0,6.1,2.7,6.1,6c0,3.3-2.7,6-6,6c0,0,0,0,0,0c0,0,0,0,0,0c-3.3,0-6-2.7-6-6C381.8,693.4,384.5,690.7,387.9,690.7z M405,673.6
	C405,673.6,405,673.6,405,673.6C405,673.6,405,673.6,405,673.6c3.4,0,6.1,2.7,6.1,6c0,3.3-2.7,6-6,6c0,0,0,0,0,0c0,0,0,0,0,0
	c-3.3,0-6-2.7-6-6C398.9,676.3,401.6,673.6,405,673.6z M422.1,690.7c3.3,0,6,2.7,6,6c0,3.3-2.7,6-6,6s-6-2.7-6-6
	C416.1,693.4,418.8,690.7,422.1,690.7z M439.2,673.6c3.3,0,6,2.7,6,6c0,3.3-2.7,6-6,6c-3.3,0-6-2.7-6-6
	C433.2,676.3,435.9,673.6,439.2,673.6z M456.3,690.7c3.3,0,6,2.7,6,6c0,3.3-2.7,6-6,6c-3.3,0-6-2.7-6-6
	C450.3,693.4,453,690.7,456.3,690.7z M473.4,673.6c3.3,0,6,2.7,6,6c0,3.3-2.7,6-6,6c-3.3,0-6-2.7-6-6
	C467.4,676.3,470.1,673.6,473.4,673.6z M490.5,690.7C490.5,690.7,490.5,690.7,490.5,690.7C490.5,690.7,490.5,690.7,490.5,690.7
	c3.4,0,6.1,2.7,6.1,6c0,3.3-2.7,6-6,6c0,0,0,0,0,0c0,0,0,0,0,0c-3.3,0-6-2.7-6-6C484.5,693.4,487.2,690.7,490.5,690.7z M507.6,673.6
	C507.6,673.6,507.6,673.6,507.6,673.6C507.6,673.6,507.6,673.6,507.6,673.6c3.4,0,6.1,2.7,6.1,6c0,3.3-2.7,6-6,6c0,0,0,0,0,0
	c0,0,0,0,0,0c-3.3,0-6-2.7-6-6C501.6,676.3,504.3,673.6,507.6,673.6z M524.7,690.7c3.3,0,6,2.7,6,6c0,3.3-2.7,6-6,6
	c-3.3,0-6-2.7-6-6C518.7,693.4,521.4,690.7,524.7,690.7z M541.8,673.6c3.3,0,6,2.7,6,6c0,3.3-2.7,6-6,6s-6-2.7-6-6
	C535.8,676.3,538.5,673.6,541.8,673.6z M558.9,690.7c3.3,0,6,2.7,6,6c0,3.3-2.7,6-6,6c-3.3,0-6-2.7-6-6
	C552.8,693.4,555.5,690.7,558.9,690.7z M575.9,673.6c3.3,0,6,2.7,6,6c0,3.3-2.7,6-6,6c-3.3,0-6-2.7-6-6
	C569.9,676.3,572.6,673.6,575.9,673.6z M80.3,862c3.3,0,6,2.7,6,6c0,3.3-2.7,6-6,6c-3.3,0-6-2.7-6-6C74.3,864.7,77,862,80.3,862z
	 M46.1,874.1c-3.3,0-6-2.7-6-6c0-3.3,2.7-6,6-6c3.3,0,6,2.7,6,6C52.2,871.4,49.5,874.1,46.1,874.1z M114.5,862c3.3,0,6,2.7,6,6
	c0,3.3-2.7,6-6,6c-3.3,0-6-2.7-6-6C108.4,864.7,111.1,862,114.5,862z M148.6,862c3.3,0,6,2.7,6,6c0,3.3-2.7,6-6,6c-3.3,0-6-2.7-6-6
	C142.6,864.7,145.3,862,148.6,862z M182.9,862c3.3,0,6,2.7,6,6c0,3.3-2.7,6-6,6c-3.3,0-6-2.7-6-6C176.8,864.7,179.5,862,182.9,862z
	 M217.1,862c3.3,0,6,2.7,6,6c0,3.3-2.7,6-6,6c-3.3,0-6-2.7-6-6C211,864.7,213.7,862,217.1,862z M251.2,862c3.3,0,6,2.7,6,6
	c0,3.3-2.7,6-6,6c-3.3,0-6-2.7-6-6C245.2,864.7,247.9,862,251.2,862z M285.4,862c3.3,0,6,2.7,6,6c0,3.3-2.7,6-6,6c-3.3,0-6-2.7-6-6
	C279.4,864.7,282.1,862,285.4,862z M319.6,862c3.3,0,6,2.7,6,6c0,3.3-2.7,6-6,6c-3.3,0-6-2.7-6-6C313.6,864.7,316.3,862,319.6,862z
	 M353.8,862c3.3,0,6,2.7,6,6c0,3.3-2.7,6-6,6c-3.3,0-6-2.7-6-6C347.8,864.7,350.5,862,353.8,862z M388,862c3.3,0,6,2.7,6,6
	c0,3.3-2.7,6-6,6s-6-2.7-6-6C382,864.7,384.7,862,388,862z M422.2,862c3.3,0,6,2.7,6,6c0,3.3-2.7,6-6,6s-6-2.7-6-6
	C416.1,864.7,418.8,862,422.2,862z M456.3,862c3.3,0,6,2.7,6,6c0,3.3-2.7,6-6,6c-3.3,0-6-2.7-6-6C450.3,864.7,453,862,456.3,862z
	 M490.6,862c3.3,0,6,2.7,6,6c0,3.3-2.7,6-6,6s-6-2.7-6-6C484.5,864.7,487.2,862,490.6,862z M524.7,862c3.3,0,6,2.7,6,6
	c0,3.3-2.7,6-6,6c-3.3,0-6-2.7-6-6C518.7,864.7,521.4,862,524.7,862z M558.9,862c3.3,0,6,2.7,6,6c0,3.3-2.7,6-6,6c-3.3,0-6-2.7-6-6
	C552.9,864.7,555.6,862,558.9,862z M593.1,862c3.3,0,6,2.7,6,6c0,3.3-2.7,6-6,6c-3.3,0-6-2.7-6-6C587,864.7,589.7,862,593.1,862z
	 M627.3,862c3.3,0,6,2.7,6,6c0,3.3-2.7,6-6,6c-3.3,0-6-2.7-6-6C621.2,864.7,623.9,862,627.3,862z M661.5,862c3.3,0,6,2.7,6,6
	c0,3.3-2.7,6-6,6c-3.3,0-6-2.7-6-6C655.5,864.7,658.2,862,661.5,862z M695.7,862c3.3,0,6,2.7,6,6c0,3.3-2.7,6-6,6c-3.3,0-6-2.7-6-6
	C689.6,864.7,692.3,862,695.7,862z" />
</svg>